<svg width="300" height="233" viewBox="0 0 300 233" fill="none" xmlns="http://www.w3.org/2000/svg">
<circle cx="149.5" cy="116.5" r="109" fill="#F0C4FF" stroke="black"/>
<path d="M131.513 202.98C131.736 205.606 135.192 213.285 147.233 223H152.584L160.277 218.405L163.622 206.262L171.649 197.072L177 184.929V175.083L171.649 167.863V162.284L164.291 156.376L160.277 152.438L156.598 145.874L152.584 140.951H149.24H142.551L138.537 136.356L131.513 131.105L117.466 134.387H110.777L103.753 131.105L107.098 127.166L112.115 121.259V113.71L107.098 108.459H99.7397L103.753 100.582L107.098 94.3467H118.804L131.513 101.895V94.3467V83.8444L135.193 74.6549L142.551 67.1063H152.584V55.2912L149.24 41.1787V31.3328L152.584 23.1279H142.551H135.193V34.6148L131.513 41.1787L124.824 34.6148H118.804V23.1279L124.824 17.2203L131.513 10L117.466 13.9384L107.098 17.2203L99.7397 23.1279H107.098L99.7397 34.6148H91.0439V41.1787L84.0203 50.0401V67.1063L78 74.6549V83.8444V94.3467V108.459L84.0203 121.259L91.0439 131.105L99.7397 137.669H112.115V145.874L107.098 152.438L99.7397 162.284C98.8478 164.8 97.5992 170.882 99.7397 175.083C102.415 180.334 103.084 184.273 107.098 188.867C110.309 192.543 116.24 190.399 118.804 188.867L124.824 197.072L131.513 202.98Z" fill="url(#paint0_radial)" stroke="black"/>
<path d="M231.749 174L216.735 200L223.559 195.667L235.502 182L245.739 166L252.564 151.667L257 130.333V112.333V100.667L254.27 87.3333L248.128 80L241.303 87.3333V91.6667H236.867L227.995 87.3333L216.735 91.6667H204.45L200.697 102L190.46 103.667V115.333L185 121.333V132.333L190.46 142.667L204.45 148.333H216.735L231.749 142.667V148.333L236.867 160L231.749 174Z" fill="url(#paint1_radial)" stroke="black"/>
<path d="M220.239 80H215.885L214.881 78.3578V75.7304V72.7745V71.1324V69.4902L216.89 66.5343L217.894 65.549V63.9069V62.5931L216.89 60.6225V59.3088V57.0098L217.894 54.7108L218.564 53.0686L220.239 52.4118V50.7696H219.569H217.894L215.885 49.1274L211.867 48.4706L209.858 47.1569L206.844 45.5147L204.835 44.201L202.491 42.8873L198.472 41.2451L196.128 39.2745L193.45 37.6324L191.44 36.3186L187.422 35.6618H182.734H180.055L178.046 34.348H176.037L174.697 33.3627L172.688 31.7206L169.674 30.7353L168 29.0931V26.7941V24.8235L169.674 23.1814V21.8676L171.683 20.2255H176.037H178.381L181.06 21.8676H182.734V20.5539L181.06 18.5833L178.046 14.9706L173.693 13L178.046 13.9853L181.394 14.9706L190.771 18.9118L197.468 21.8676L203.161 24.8235L209.858 29.0931L214.881 31.7206L220.239 36.3186L224.927 40.2598L230.284 45.5147L234.638 49.1274L237.651 53.0686L241 57.6667H237.651H235.642L234.638 56.0245H233.298L231.289 59.3088V61.6078L230.284 63.9069L228.945 66.5343L227.271 68.1765L224.927 69.4902L223.922 70.4755L223.252 72.1176V74.4167H221.578V75.7304V78.3578L220.239 80Z" fill="url(#paint2_radial)" stroke="black"/>
<defs>
<radialGradient id="paint0_radial" cx="0" cy="0" r="1" gradientUnits="userSpaceOnUse" gradientTransform="translate(127.5 116.5) rotate(90) scale(106.5 49.5)">
<stop stop-color="#59E970"/>
<stop offset="1" stop-color="#8AFF9D" stop-opacity="0.58"/>
</radialGradient>
<radialGradient id="paint1_radial" cx="0" cy="0" r="1" gradientUnits="userSpaceOnUse" gradientTransform="translate(221 140) rotate(90) scale(60 36)">
<stop stop-color="#59E970"/>
<stop offset="1" stop-color="#91FFA2" stop-opacity="0.62"/>
</radialGradient>
<radialGradient id="paint2_radial" cx="0" cy="0" r="1" gradientUnits="userSpaceOnUse" gradientTransform="translate(204.5 46.5) rotate(90) scale(33.5 36.5)">
<stop stop-color="#59E970"/>
<stop offset="1" stop-color="#8FFCA0" stop-opacity="0.56"/>
</radialGradient>
</defs>
</svg>
