<svg width="300" height="233" viewBox="0 0 300 233" fill="none" xmlns="http://www.w3.org/2000/svg">
<mask id="path-1-inside-1" fill="white">
<path fill-rule="evenodd" clip-rule="evenodd" d="M175.576 83.9286C178.489 74.276 182.812 64.2143 188.526 54.2896C201.753 31.314 219.403 14.3316 235.723 7C237.649 24.6698 231.873 48.3796 218.646 71.3552C213.083 81.0186 206.737 89.6218 200.037 96.8927C216.726 110.083 227.343 129.916 227.343 152.096C227.343 191.807 193.306 224 151.32 224C109.335 224 75.2982 191.807 75.2982 152.096C75.2982 136.284 80.6938 121.665 89.8386 109.795C83.0353 100.203 77.0198 88.68 72.4613 75.8402C63.4598 50.4861 62.1998 25.7991 67.6156 8.57039C82.8266 18.9314 97.5091 39.1492 106.511 64.5033C109.581 73.1519 111.751 81.7228 113.062 89.9466C124.3 83.7446 137.371 80.1912 151.32 80.1912C159.802 80.1912 167.958 81.5048 175.576 83.9286Z"/>
</mask>
<path fill-rule="evenodd" clip-rule="evenodd" d="M175.576 83.9286C178.489 74.276 182.812 64.2143 188.526 54.2896C201.753 31.314 219.403 14.3316 235.723 7C237.649 24.6698 231.873 48.3796 218.646 71.3552C213.083 81.0186 206.737 89.6218 200.037 96.8927C216.726 110.083 227.343 129.916 227.343 152.096C227.343 191.807 193.306 224 151.32 224C109.335 224 75.2982 191.807 75.2982 152.096C75.2982 136.284 80.6938 121.665 89.8386 109.795C83.0353 100.203 77.0198 88.68 72.4613 75.8402C63.4598 50.4861 62.1998 25.7991 67.6156 8.57039C82.8266 18.9314 97.5091 39.1492 106.511 64.5033C109.581 73.1519 111.751 81.7228 113.062 89.9466C124.3 83.7446 137.371 80.1912 151.32 80.1912C159.802 80.1912 167.958 81.5048 175.576 83.9286Z" fill="url(#paint0_linear)"/>
<path d="M188.526 54.2896L187.659 53.7907L187.659 53.7907L188.526 54.2896ZM175.576 83.9286L175.273 84.8816L176.24 85.1894L176.533 84.2175L175.576 83.9286ZM235.723 7L236.717 6.89161L236.568 5.5241L235.313 6.08782L235.723 7ZM218.646 71.3552L219.512 71.8541L219.512 71.8541L218.646 71.3552ZM200.037 96.8927L199.301 96.2151L198.57 97.0084L199.417 97.6773L200.037 96.8927ZM89.8386 109.795L90.6307 110.405L91.082 109.819L90.6542 109.216L89.8386 109.795ZM72.4613 75.8402L73.4036 75.5056L73.4036 75.5056L72.4613 75.8402ZM67.6156 8.57039L68.1786 7.74391L67.0655 6.98574L66.6616 8.27051L67.6156 8.57039ZM106.511 64.5033L107.453 64.1687L107.453 64.1687L106.511 64.5033ZM113.062 89.9466L112.075 90.1041L112.299 91.5101L113.545 90.8221L113.062 89.9466ZM187.659 53.7907C181.909 63.7785 177.554 73.9104 174.618 83.6397L176.533 84.2175C179.423 74.6415 183.715 64.65 189.392 54.7885L187.659 53.7907ZM235.313 6.08782C218.747 13.53 200.957 30.692 187.659 53.7907L189.392 54.7885C202.549 31.936 220.059 15.1332 236.133 7.91218L235.313 6.08782ZM219.512 71.8541C232.81 48.756 238.673 24.8331 236.717 6.89161L234.729 7.10838C236.626 24.5065 230.936 48.0032 217.779 70.8563L219.512 71.8541ZM200.772 97.5704C207.525 90.2428 213.914 81.5791 219.512 71.8541L217.779 70.8563C212.251 80.4581 205.949 89.0009 199.301 96.2151L200.772 97.5704ZM199.417 97.6773C215.886 110.693 226.343 130.247 226.343 152.096H228.343C228.343 129.586 217.566 109.472 200.657 96.1082L199.417 97.6773ZM226.343 152.096C226.343 191.203 192.807 223 151.32 223V225C193.805 225 228.343 192.411 228.343 152.096H226.343ZM151.32 223C109.834 223 76.2982 191.203 76.2982 152.096H74.2982C74.2982 192.411 108.835 225 151.32 225V223ZM76.2982 152.096C76.2982 136.517 81.6132 122.11 90.6307 110.405L89.0464 109.185C79.7744 121.22 74.2982 136.051 74.2982 152.096H76.2982ZM71.5189 76.1748C76.1064 89.0963 82.1633 100.702 89.0229 110.373L90.6542 109.216C83.9072 99.7035 77.9332 88.2638 73.4036 75.5056L71.5189 76.1748ZM66.6616 8.27051C61.162 25.7662 62.469 50.6842 71.5189 76.1748L73.4036 75.5056C64.4506 50.288 63.2377 25.8321 68.5696 8.87027L66.6616 8.27051ZM107.453 64.1687C98.4024 38.6764 83.6125 18.2567 68.1786 7.74391L67.0527 9.39688C82.0407 19.606 96.6158 39.622 105.568 64.8379L107.453 64.1687ZM114.05 89.7892C112.728 81.5033 110.543 72.8731 107.453 64.1687L105.568 64.8379C108.619 73.4306 110.773 81.9424 112.075 90.1041L114.05 89.7892ZM113.545 90.8221C124.637 84.7008 137.542 81.1912 151.32 81.1912V79.1912C137.2 79.1912 123.963 82.7885 112.579 89.0711L113.545 90.8221ZM151.32 81.1912C159.698 81.1912 167.753 82.4887 175.273 84.8816L175.879 82.9757C168.164 80.5209 159.905 79.1912 151.32 79.1912V81.1912Z" fill="black" mask="url(#path-1-inside-1)"/>
<circle cx="181.74" cy="137" r="17" fill="white"/>
<ellipse cx="118.24" cy="137" rx="17.5" ry="17" fill="white"/>
<circle cx="182.24" cy="137.5" r="15.5" fill="black"/>
<ellipse cx="118.74" cy="137.5" rx="15" ry="15.5" fill="black"/>
<ellipse cx="177.24" cy="132" rx="5.5" ry="5" fill="white"/>
<circle cx="113.74" cy="132" r="5" fill="white"/>
<ellipse cx="151.24" cy="170" rx="5.5" ry="2" fill="black"/>
<path fill-rule="evenodd" clip-rule="evenodd" d="M134.236 183.331C135.709 183.527 137.279 183.586 138.907 183.484C141.913 183.294 144.655 182.583 146.906 181.533C148.897 180.846 150.651 179.992 152.085 179.02C149.524 181.959 144.66 184.123 138.97 184.482C134.781 184.746 130.915 183.983 128.005 182.527C129.907 182.976 132.009 183.255 134.236 183.331Z" fill="black"/>
<path fill-rule="evenodd" clip-rule="evenodd" d="M156.385 181.422C157.76 181.984 159.264 182.437 160.865 182.749C163.821 183.326 166.654 183.33 169.097 182.883C171.198 182.721 173.11 182.338 174.743 181.76C171.523 183.957 166.27 184.822 160.674 183.731C156.554 182.928 153.006 181.213 150.559 179.069C152.285 179.984 154.249 180.785 156.385 181.422Z" fill="black"/>
<ellipse cx="202.74" cy="172.5" rx="12" ry="11.5" fill="#4C00FF"/>
<ellipse cx="101.74" cy="172.5" rx="12" ry="11.5" fill="#4C00FF"/>
<path fill-rule="evenodd" clip-rule="evenodd" d="M65.192 48.5298C63.0566 33.494 63.8232 19.7183 67.2273 8.88919C77.6387 15.9809 87.8025 27.6905 96.0665 42.5042C88.2156 46.3821 78.8783 48.6309 68.8591 48.6309C67.6259 48.6309 66.403 48.5968 65.192 48.5298Z" fill="black"/>
<path fill-rule="evenodd" clip-rule="evenodd" d="M204.401 31.8162C214.39 20.258 225.326 11.6708 235.723 7.00012C237.078 19.4285 234.622 34.845 228.443 50.8924C218.097 50.3073 209.16 42.763 204.401 31.8162Z" fill="black"/>
<defs>
<linearGradient id="paint0_linear" x1="150.237" y1="7" x2="150.237" y2="224" gradientUnits="userSpaceOnUse">
<stop stop-color="#F0C4FF"/>
<stop offset="1" stop-color="white"/>
</linearGradient>
</defs>
</svg>
